<svg xmlns="http://www.w3.org/2000/svg" xmlns:xlink="http://www.w3.org/1999/xlink" width="18" height="19" viewBox="0 0 18 19"><defs><path id="71o5a" d="M333.234 46.694v2.298a1.532 1.532 0 0 1-1.67 1.532 15.159 15.159 0 0 1-6.61-2.351 14.937 14.937 0 0 1-4.596-4.596 15.159 15.159 0 0 1-2.352-6.641 1.532 1.532 0 0 1 1.524-1.67h2.298a1.532 1.532 0 0 1 1.532 1.317c.097.736.277 1.458.537 2.153.21.56.075 1.19-.345 1.616l-.973.973a12.256 12.256 0 0 0 4.596 4.596l.973-.973a1.532 1.532 0 0 1 1.616-.345c.695.26 1.417.44 2.152.537.77.108 1.337.777 1.318 1.554zM327.91 34.5a6.894 6.894 0 0 1 6.09 6.082m-6.09-3.018a3.83 3.83 0 0 1 3.026 3.026"/></defs><g><g transform="translate(-317 -33)"><use fill="#fff" fill-opacity="0" stroke="#2d333b" stroke-linecap="round" stroke-linejoin="round" stroke-miterlimit="50" stroke-width="2" xlink:href="#71o5a"/></g></g></svg>