<svg xmlns="http://www.w3.org/2000/svg" xmlns:xlink="http://www.w3.org/1999/xlink" width="24" height="18" viewBox="0 0 24 18"><defs><path id="umsma" d="M69.764 1755.518s3.115 1.148 3.825 1.858c.71.765 2.24 1.421 3.388 1.093 1.148-.328 2.295-1.749 2.077-2.678-.219-.929 1.147-2.459 2.186-2.787 1.038-.327 5.956-2.13 6.721-4.808l-1.202-.055s.11 1.967-3.17 2.459c-3.278.492-6.393 1.64-6.721 2.404-.328.82.382-2.404-.219-3.442-.6-1.039-9.945-7.706-11.148-8.416-1.202-.71-.71 1.366-.273 2.022.437.656 6.285 6.612 6.558 7.104.273.492 1.202 3.77 1.202 3.77l.055.93-3.06-.055z"/></defs><g><g transform="translate(-64 -1741)"><use fill="#636b76" xlink:href="#umsma"/></g></g></svg>