<svg xmlns="http://www.w3.org/2000/svg" xmlns:xlink="http://www.w3.org/1999/xlink" width="18" height="18" viewBox="0 0 18 18"><defs><path id="d7rda" d="M586 213.556a7.449 7.449 0 0 1-.8 3.377 7.556 7.556 0 0 1-6.756 4.178 7.449 7.449 0 0 1-3.377-.8L570 222l1.689-5.067a7.449 7.449 0 0 1-.8-3.377 7.556 7.556 0 0 1 4.178-6.756 7.449 7.449 0 0 1 3.377-.8h.445a7.538 7.538 0 0 1 7.111 7.111z"/></defs><g><g transform="translate(-569 -205)"><use fill="#fff" fill-opacity="0" stroke="#2d333b" stroke-linecap="round" stroke-linejoin="round" stroke-miterlimit="50" stroke-width="2" xlink:href="#d7rda"/></g></g></svg>