<svg xmlns="http://www.w3.org/2000/svg" xmlns:xlink="http://www.w3.org/1999/xlink" width="265" height="124" viewBox="0 0 265 124"><defs><path id="p932a" d="M73.999 249H57.344c-.58 0-1.914-.565-.338-1.415a17.94 17.94 0 0 0 5.721-3.857 17.919 17.919 0 0 0 3.858-5.722A17.876 17.876 0 0 0 68 231.174V162a5 5 0 0 1 5-5h216a5 5 0 0 1 5 5v82a5 5 0 0 1-5 5z"/><mask id="p932c" width="2" height="2" x="-1" y="-1"><path fill="#fff" d="M56 157h238v92H56z"/><use xlink:href="#p932a"/></mask><filter id="p932b" width="303" height="157" x="26" y="127" filterUnits="userSpaceOnUse"><feOffset dx="5" dy="5" in="SourceGraphic" result="FeOffset1046Out"/><feGaussianBlur in="FeOffset1046Out" result="FeGaussianBlur1047Out" stdDeviation="8 8"/></filter></defs><g><g transform="translate(-50 -146)"><g filter="url(#p932b)"><use fill="none" stroke-opacity=".16" stroke-width="0" mask="url(&quot;#p932c&quot;)" xlink:href="#p932a"/><use fill="#2d333b" fill-opacity=".16" xlink:href="#p932a"/></g><use fill="#fff" xlink:href="#p932a"/></g></g></svg>